<svg width="32" height="32" viewBox="0 0 32 32" fill="none" xmlns="http://www.w3.org/2000/svg">
<path fill-rule="evenodd" clip-rule="evenodd" d="M12.4227 5.3335C12.8681 5.3335 13.0912 5.87207 12.7762 6.18705L6.18705 12.7762C5.87207 13.0912 5.3335 12.8681 5.3335 12.4227V7.3335C5.3335 6.22893 6.22893 5.3335 7.3335 5.3335H12.4227ZM19.5776 26.6668C19.1322 26.6668 18.9091 26.1283 19.2241 25.8133L25.8133 19.2241C26.1283 18.9091 26.6668 19.1322 26.6668 19.5776V24.6668C26.6668 25.7714 25.7714 26.6668 24.6668 26.6668H19.5776Z" fill="#00666E"/>
<path fill-rule="evenodd" clip-rule="evenodd" d="M24.2965 5.3335H17.2991C16.8276 5.3335 16.3754 5.5208 16.042 5.8542L5.8542 16.042C5.5208 16.3754 5.3335 16.8276 5.3335 17.2991V24.2965C5.3335 25.6056 6.39475 26.6668 7.70387 26.6668H14.7012C15.1727 26.6668 15.6249 26.4795 15.9583 26.1461L26.1461 15.9583C26.4795 15.6249 26.6668 15.1727 26.6668 14.7012V7.70387C26.6668 6.39475 25.6056 5.3335 24.2965 5.3335ZM7.70271 17.5445L17.5433 7.70387H23.2963C23.8487 7.70387 24.2964 8.15169 24.2963 8.70404L24.2953 14.4559L14.4547 24.2965H8.70372C8.1515 24.2965 7.70382 23.8489 7.70372 23.2966L7.70271 17.5445ZM18.2243 10.2207C18.318 10.1269 18.4452 10.0742 18.5778 10.0742H20.9263C21.4786 10.0742 21.9263 10.522 21.9263 11.0742V13.4227C21.9263 13.5553 21.8736 13.6825 21.7798 13.7762L13.7762 21.7796C13.6825 21.8734 13.5553 21.9261 13.4227 21.9261H11.0742C10.522 21.9261 10.0742 21.4784 10.0742 20.9261V18.5776C10.0742 18.445 10.1269 18.3179 10.2207 18.2241L18.2243 10.2207Z" fill="#00BBA3"/>
</svg>
