<?xml version="1.0" encoding="UTF-8"?>
<svg version="1.1" xmlns="http://www.w3.org/2000/svg" width="1107" height="423">
<path d="M0 0 C1.45237061 -0.0009668 1.45237061 -0.0009668 2.93408203 -0.00195312 C10.25252749 0.0517961 17.19955673 0.67117991 24.375 2.1875 C24.375 2.8475 24.375 3.5075 24.375 4.1875 C25.86 3.6925 25.86 3.6925 27.375 3.1875 C27.375 3.8475 27.375 4.5075 27.375 5.1875 C29.025 5.1875 30.675 5.1875 32.375 5.1875 C32.375 5.8475 32.375 6.5075 32.375 7.1875 C34.685 7.5175 36.995 7.8475 39.375 8.1875 C39.375 8.8475 39.375 9.5075 39.375 10.1875 C40.261875 10.455625 41.14875 10.72375 42.0625 11 C45.1659666 12.1125635 47.68610685 13.28945778 50.375 15.1875 C50.375 15.8475 50.375 16.5075 50.375 17.1875 C51.179375 17.496875 51.179375 17.496875 52 17.8125 C55.29478009 19.72000426 57.96863628 22.23569384 60.375 25.1875 C60.375 25.8475 60.375 26.5075 60.375 27.1875 C61.365 27.5175 62.355 27.8475 63.375 28.1875 C64.69140625 29.96484375 64.69140625 29.96484375 65.9375 32.125 C67.31697027 34.49287576 68.42471701 36.23721701 70.375 38.1875 C71.41991683 40.48980979 72.3895716 42.77449347 73.3125 45.125 C73.71118286 46.13445679 73.71118286 46.13445679 74.11791992 47.16430664 C78.91547517 59.54438252 80.54505116 70.96698061 80.4375 84.1875 C80.43298828 85.24839844 80.42847656 86.30929688 80.42382812 87.40234375 C80.41213843 89.99745598 80.39575276 92.59244709 80.375 95.1875 C80.89739258 94.64770508 81.41978516 94.10791016 81.95800781 93.55175781 C92.69196734 82.61013992 104.79794529 76.76870073 120.32055664 76.58032227 C122.0181311 76.60243774 122.0181311 76.60243774 123.75 76.625 C124.9352124 76.63523193 126.1204248 76.64546387 127.34155273 76.65600586 C141.70735829 77.00446524 153.54040759 81.16088326 163.765625 91.63671875 C165.69104969 93.78094169 167.55893283 95.95038933 169.375 98.1875 C169.41367188 97.20910156 169.41367188 97.20910156 169.453125 96.2109375 C169.8249417 90.48158013 170.45861045 86.66337377 174.375 82.1875 C177.16717182 80.49373932 179.24125324 79.93674006 182.48927879 79.93023109 C183.30517396 79.9237822 184.12106913 79.91733331 184.9616884 79.910689 C185.85253527 79.9137862 186.74338214 79.9168834 187.66122437 79.92007446 C188.61187637 79.91554335 189.56252837 79.91101224 190.54198802 79.90634382 C193.7355606 79.89365784 196.92896356 79.8953229 200.12255859 79.89697266 C202.40895305 79.89099005 204.69534547 79.88418513 206.98173523 79.87661743 C213.19865588 79.85892347 219.4155215 79.85426063 225.63246489 79.85298586 C230.81898604 79.85108857 236.00549432 79.84373304 241.19201052 79.83664167 C252.72739394 79.82127848 264.2627459 79.81530491 275.79813807 79.81665237 C276.49027008 79.81673228 277.1824021 79.8168122 277.89550781 79.81689453 C278.93497387 79.81701717 278.93497387 79.81701717 279.99543925 79.81714229 C291.2267789 79.81795524 302.45798446 79.79881541 313.68928532 79.7706178 C325.22236227 79.74189108 336.75535648 79.72844367 348.28847182 79.72980535 C354.76311913 79.73031582 361.2376147 79.72458558 367.71223068 79.70344925 C373.80091313 79.68411598 379.88929831 79.68390892 385.9779911 79.69848251 C388.21370819 79.70057777 390.44944365 79.69582728 392.68512917 79.6837616 C395.73537387 79.66836501 398.78458646 79.67758078 401.83480835 79.69302368 C403.16438649 79.67759299 403.16438649 79.67759299 404.52082479 79.66185057 C410.09519827 79.72429138 413.06831075 80.59028348 417.375 84.1875 C420.10621041 87.73328194 419.81712684 92.12474141 420 96.4375 C420.05800781 97.55511719 420.05800781 97.55511719 420.1171875 98.6953125 C420.21105108 100.5256524 420.29409718 102.35654143 420.375 104.1875 C420.93445313 103.630625 421.49390625 103.07375 422.0703125 102.5 C428.86509461 96.0329405 436.06986576 91.38870792 444.375 87.1875 C445.47714844 86.62933594 446.57929687 86.07117188 447.71484375 85.49609375 C462.76576428 78.48872235 478.55975702 76.51660896 495.01928711 76.72094727 C497.57275878 76.75011719 500.1241636 76.74144324 502.67773438 76.72851562 C527.70408444 76.75904657 552.69255153 83.25350678 571.19921875 100.97265625 C586.63324418 116.6837737 593.79475983 135.18649062 593.60742188 157.25854492 C593.33986523 168.44910171 590.89679167 177.96597094 586.375 188.1875 C585.76205078 189.57775391 585.76205078 189.57775391 585.13671875 190.99609375 C579.82153897 201.79892227 571.2592647 210.48252945 561.375 217.1875 C562.32753662 217.20151855 562.32753662 217.20151855 563.29931641 217.21582031 C566.200308 217.26978733 569.09973244 217.35338127 572 217.4375 C572.99902344 217.45167969 573.99804688 217.46585938 575.02734375 217.48046875 C581.05025015 217.67990274 584.8522725 218.05996229 589.375 222.1875 C591.41974207 225.41555591 591.63624875 227.99351519 591.66552734 231.77880859 C591.6846669 233.46108047 591.6846669 233.46108047 591.70419312 235.17733765 C591.70753159 236.98834457 591.70753159 236.98834457 591.7109375 238.8359375 C591.7175943 240.08122223 591.7242511 241.32650696 591.73110962 242.60952759 C591.74123618 245.24406223 591.74679182 247.87818419 591.74560547 250.51269531 C591.74544274 253.20925668 591.75935399 255.90514012 591.78662109 258.6015625 C591.82326424 262.49239873 591.83307839 266.38244594 591.8359375 270.2734375 C591.85030853 271.47672699 591.86467957 272.68001648 591.87948608 273.91976929 C591.82150255 284.54745876 591.82150255 284.54745876 587.375 289.1875 C583.81416213 291.5428576 580.64412136 291.4436554 576.4425354 291.45492554 C575.74506364 291.45945665 575.04759188 291.46398776 574.32898462 291.46865618 C571.99220492 291.48131501 569.65565785 291.47967888 567.31884766 291.47802734 C565.64328206 291.48401167 563.96771923 291.49081699 562.29216003 291.49838257 C557.74047158 291.51605937 553.18885831 291.52073865 548.63713884 291.52201414 C544.83742871 291.52391309 541.03773609 291.53127056 537.2380327 291.53835833 C528.27326277 291.5546462 519.30853302 291.55952691 510.34375 291.55810547 C501.09604233 291.55690385 491.84856798 291.57800887 482.60091937 291.6095928 C474.66109673 291.63574374 466.72135034 291.64647326 458.78148496 291.64519465 C454.03944727 291.64468468 449.2976169 291.65038736 444.5556221 291.67155075 C440.09532412 291.69091331 435.63543167 291.69107128 431.1751194 291.67651749 C429.53927201 291.67442583 427.90339937 291.67915155 426.26759529 291.6912384 C424.03173121 291.70668742 421.79726607 291.69738681 419.56143188 291.68197632 C418.31114511 291.68306585 417.06085835 291.68415539 415.7726841 291.68527794 C411.72586917 291.09239904 409.55671966 289.70736966 406.375 287.1875 C404.12632777 284.05660058 404.13934558 281.3390158 404.1796875 277.546875 C404.18613281 276.47695313 404.19257812 275.40703125 404.19921875 274.3046875 C404.21597656 273.19351562 404.23273437 272.08234375 404.25 270.9375 C404.25902344 269.81085938 404.26804687 268.68421875 404.27734375 267.5234375 C404.30089342 264.74457635 404.3337832 261.9661461 404.375 259.1875 C403.385 259.1875 402.395 259.1875 401.375 259.1875 C401.39594727 259.88311035 401.41689453 260.5787207 401.43847656 261.29541016 C401.5219698 264.46762458 401.57376529 267.63960731 401.625 270.8125 C401.65851562 271.90691406 401.69203125 273.00132812 401.7265625 274.12890625 C401.80298253 280.43355852 401.81993158 284.50944264 397.375 289.1875 C393.96837865 291.39189979 391.1333202 291.43555167 387.12524414 291.43041992 C385.22791283 291.43503487 385.22791283 291.43503487 383.29225159 291.43974304 C381.91488463 291.43284389 380.53751947 291.42557681 379.16015625 291.41796875 C377.74295595 291.41677584 376.32575485 291.41632402 374.90855408 291.4165802 C371.94036905 291.4150175 368.97230499 291.40674548 366.00415039 291.39331055 C362.20676696 291.37633662 358.40951657 291.37249596 354.61209965 291.37325573 C351.68581379 291.37298325 348.75955679 291.36748921 345.83328056 291.36025429 C344.43349869 291.35708048 343.03371357 291.35510323 341.6339283 291.35436058 C339.67399032 291.35218246 337.71406478 291.34262453 335.75415039 291.33276367 C334.64036514 291.32895187 333.5265799 291.32514008 332.37904358 291.32121277 C329.375 291.1875 329.375 291.1875 326.6013031 290.61592102 C324.34700332 289.94809203 324.34700332 289.94809203 322.375 291.1875 C320.34435395 291.29952259 318.31002393 291.34681948 316.27636719 291.36450195 C314.99453552 291.37733719 313.71270386 291.39017242 312.39202881 291.40339661 C310.9853148 291.41156505 309.57859642 291.41900858 308.171875 291.42578125 C307.4640815 291.42985678 306.75628799 291.4339323 306.0270462 291.43813133 C302.27893872 291.45899563 298.53086785 291.47329432 294.78271484 291.48266602 C290.91788483 291.49371621 287.05363284 291.5280981 283.18900681 291.56783772 C280.21206622 291.59403352 277.23526255 291.60236055 274.25821686 291.60594749 C272.83409991 291.61080785 271.40998885 291.62240626 269.9859848 291.64098549 C267.9878688 291.66542942 265.98947134 291.66198698 263.99121094 291.6574707 C262.28816803 291.66627007 262.28816803 291.66627007 260.55072021 291.67524719 C256.61681041 291.07105245 254.4685814 289.64974359 251.375 287.1875 C250.715 286.1975 250.055 285.2075 249.375 284.1875 C248.7975 285.13625 248.22 286.085 247.625 287.0625 C245.40400349 290.14721737 244.77416812 290.94065589 241.375 292.1875 C238.54263306 292.45492554 238.54263306 292.45492554 235.23291016 292.47802734 C233.99127106 292.49078705 232.74963196 292.50354675 231.47036743 292.51669312 C230.11826738 292.51975088 228.76616523 292.52197858 227.4140625 292.5234375 C226.02167627 292.52986801 224.62929138 292.53659656 223.23690796 292.54360962 C220.32001616 292.55557396 217.40324272 292.55929134 214.48632812 292.55810547 C210.75826403 292.55790237 207.03096299 292.5851981 203.30307961 292.61964989 C200.42734325 292.64194613 197.55178972 292.64594219 194.6759758 292.64488602 C193.30211127 292.64723813 191.92824141 292.65603979 190.55446243 292.67155075 C177.22310066 292.80797511 177.22310066 292.80797511 172.375 288.1875 C170.3202038 285.2314774 170.03024199 282.48723187 169.75 278.9375 C169.67523437 278.04546875 169.60046875 277.1534375 169.5234375 276.234375 C169.47445312 275.55890625 169.42546875 274.8834375 169.375 274.1875 C168.59189453 275.14849609 168.59189453 275.14849609 167.79296875 276.12890625 C158.82402494 286.66859328 148.10745409 293.88126053 134.10131836 295.5859375 C130.72353812 295.75722908 127.38173168 295.79405616 124 295.75 C122.8147876 295.73976807 121.6295752 295.72953613 120.40844727 295.71899414 C106.97338167 295.39311094 96.831648 291.83543051 86.375 283.1875 C85.75238281 282.68863281 85.12976563 282.18976563 84.48828125 281.67578125 C73.26743467 271.66527318 67.8547495 255.31502911 64.375 241.1875 C64.3656543 242.42838379 64.35630859 243.66926758 64.34667969 244.94775391 C64.30670717 249.56627866 64.24092793 254.18414238 64.16748047 258.80224609 C64.13931297 260.79825325 64.11807748 262.79437106 64.10400391 264.79052734 C64.08251597 267.66561364 64.03583574 270.53937529 63.984375 273.4140625 C63.98314636 274.30179352 63.98191772 275.18952454 63.98065186 276.10415649 C63.85228041 281.57541568 63.1305019 284.91882908 59.375 289.1875 C56.17547058 291.21905632 53.63674495 291.44456229 49.88275146 291.4659729 C48.76658447 291.47713638 47.65041748 291.48829987 46.50042725 291.49980164 C45.28051086 291.50196182 44.06059448 291.50412201 42.80371094 291.50634766 C41.51565552 291.51639328 40.2276001 291.5264389 38.9005127 291.53678894 C35.37194911 291.56408552 31.84342544 291.57923728 28.31478405 291.59221697 C24.62584544 291.60784903 20.93698832 291.63463901 17.24810791 291.6602478 C10.26424302 291.70703428 3.2803628 291.743779 -3.70357871 291.77692068 C-11.65520292 291.815143 -19.60674528 291.86455287 -27.5583005 291.91490483 C-43.91380821 292.01822273 -60.26936134 292.10748357 -76.625 292.1875 C-77.0890625 293.115625 -77.0890625 293.115625 -77.5625 294.0625 C-78.25 295.4375 -78.9375 296.8125 -79.625 298.1875 C-80.285 298.1875 -80.945 298.1875 -81.625 298.1875 C-81.8621875 298.72890625 -82.099375 299.2703125 -82.34375 299.828125 C-83.96847757 302.82000137 -85.9751877 305.29909399 -88.125 307.9375 C-88.9190625 308.92234375 -89.713125 309.9071875 -90.53125 310.921875 C-91.2221875 311.66953125 -91.913125 312.4171875 -92.625 313.1875 C-93.285 313.1875 -93.945 313.1875 -94.625 313.1875 C-94.810625 313.8475 -94.99625 314.5075 -95.1875 315.1875 C-96.94698888 318.85947679 -99.32483645 321.43701032 -102.06640625 324.41796875 C-103.69556716 326.11564506 -103.69556716 326.11564506 -104.625 328.1875 C-105.285 328.1875 -105.945 328.1875 -106.625 328.1875 C-106.85574219 328.73535156 -107.08648437 329.28320312 -107.32421875 329.84765625 C-108.99310072 332.84963914 -111.10607116 335.1048198 -113.4375 337.625 C-114.28957031 338.55183594 -115.14164062 339.47867187 -116.01953125 340.43359375 C-118.51026481 343.06622817 -121.05370682 345.63381842 -123.625 348.1875 C-124.181875 348.785625 -124.73875 349.38375 -125.3125 350 C-126.625 351.1875 -126.625 351.1875 -128.625 351.1875 C-128.955 352.1775 -129.285 353.1675 -129.625 354.1875 C-131.88671875 355.6953125 -131.88671875 355.6953125 -134.625 357.1875 C-135.39457031 357.65929687 -136.16414063 358.13109375 -136.95703125 358.6171875 C-156.98229797 370.28545315 -179.91188674 371.65552681 -202.18359375 366.11328125 C-203.31925781 365.80777344 -204.45492187 365.50226563 -205.625 365.1875 C-205.625 364.5275 -205.625 363.8675 -205.625 363.1875 C-207.275 363.1875 -208.925 363.1875 -210.625 363.1875 C-210.625 362.5275 -210.625 361.8675 -210.625 361.1875 C-211.49898437 360.92710937 -212.37296875 360.66671875 -213.2734375 360.3984375 C-216.61890992 359.18970038 -219.26732227 357.73653718 -222.25 355.8125 C-223.17039062 355.22726562 -224.09078125 354.64203125 -225.0390625 354.0390625 C-227.51697858 352.26484464 -229.50303508 350.36318555 -231.625 348.1875 C-232.615 347.5275 -233.605 346.8675 -234.625 346.1875 C-235.99573786 344.55145804 -237.32555256 342.88071939 -238.625 341.1875 C-239.24117187 340.47207031 -239.85734375 339.75664062 -240.4921875 339.01953125 C-243.07426813 335.59094433 -244.92376917 332.0287462 -246.8125 328.1875 C-247.16763672 327.48882812 -247.52277344 326.79015625 -247.88867188 326.0703125 C-249.69561516 322.43585351 -251.02140516 319.2335753 -251.625 315.1875 C-252.37850119 312.09978319 -253.13720158 309.01357167 -253.90625 305.9296875 C-254.51933548 302.73764461 -254.8906299 299.68554886 -255.16992188 296.45361328 C-255.29941223 294.97285812 -255.29941223 294.97285812 -255.43151855 293.46218872 C-255.52729187 292.3362178 -255.52729187 292.3362178 -255.625 291.1875 C-256.50737776 291.19118717 -257.38975552 291.19487434 -258.29887199 291.19867325 C-279.79123568 291.28709666 -301.28356792 291.35324485 -322.77607536 291.39474869 C-333.16979387 291.41535427 -343.56339079 291.44343656 -353.95703125 291.48925781 C-363.01849295 291.52918692 -372.07986657 291.55494738 -381.14141381 291.56385398 C-385.93732175 291.56905844 -390.73297776 291.581249 -395.52880478 291.61042023 C-400.04812098 291.63768535 -404.56708282 291.64592267 -409.08647346 291.63993073 C-410.7400016 291.64102602 -412.39354228 291.64891363 -414.04699898 291.6643219 C-422.92478708 291.74295467 -430.60291966 291.49991251 -438.625 287.1875 C-439.52734375 286.71828125 -440.4296875 286.2490625 -441.359375 285.765625 C-450.59061175 279.68302714 -456.57201783 270.63959084 -459.19078445 259.89097977 C-460.1976129 253.62234114 -459.92010212 247.19640694 -459.91552734 240.86083984 C-459.92151796 239.20438842 -459.92832473 237.54793977 -459.93588257 235.89149475 C-459.95348823 231.41028852 -459.95823544 226.92915875 -459.95951414 222.44792128 C-459.96093854 219.64639084 -459.96521344 216.84487967 -459.97050858 214.04335403 C-459.98898565 204.26521831 -459.99718145 194.48713698 -459.99560547 184.70898438 C-459.99440232 175.59979309 -460.01554459 166.49083806 -460.0470928 157.3817066 C-460.07324143 149.55220565 -460.08397347 141.72278199 -460.08269465 133.89323771 C-460.08218492 129.22056353 -460.08787523 124.54809981 -460.10905075 119.87546921 C-460.12841122 115.48406134 -460.12857278 111.09306537 -460.11401749 106.70164299 C-460.11192607 105.09159303 -460.11665011 103.4815174 -460.1287384 101.87151146 C-460.1441899 99.67088646 -460.13488563 97.47168233 -460.11947632 95.27108765 C-460.12111062 93.42557343 -460.12111062 93.42557343 -460.12277794 91.54277611 C-459.43150215 86.88322622 -457.60995251 83.67156556 -453.80827904 80.8292141 C-450.72301978 79.92238802 -447.9085071 79.92870084 -444.6925354 79.92007446 C-443.99506364 79.91554335 -443.29759188 79.91101224 -442.57898462 79.90634382 C-440.24220492 79.89368499 -437.90565785 79.89532112 -435.56884766 79.89697266 C-433.89328206 79.89098833 -432.21771923 79.88418301 -430.54216003 79.87661743 C-425.99047158 79.85894063 -421.43885831 79.85426135 -416.88713884 79.85298586 C-413.08742871 79.85108691 -409.28773609 79.84372944 -405.4880327 79.83664167 C-396.52326277 79.8203538 -387.55853302 79.81547309 -378.59375 79.81689453 C-369.34604233 79.81809615 -360.09856798 79.79699113 -350.85091937 79.7654072 C-342.91109673 79.73925626 -334.97135034 79.72852674 -327.03148496 79.72980535 C-322.28944727 79.73031532 -317.5476169 79.72461264 -312.8056221 79.70344925 C-308.34532412 79.68408669 -303.88543167 79.68392872 -299.4251194 79.69848251 C-297.78927201 79.70057417 -296.15339937 79.69584845 -294.51759529 79.6837616 C-292.28173121 79.66831258 -290.04726607 79.67761319 -287.81143188 79.69302368 C-286.56114511 79.69193415 -285.31085835 79.69084461 -284.0226841 79.68972206 C-278.78592645 80.45693359 -275.11678606 83.30773771 -271.625 87.1875 C-271.7075 86.15625 -271.79 85.125 -271.875 84.0625 C-271.5818741 79.51904849 -270.52039517 77.64588867 -267.625 74.1875 C-264.0884374 71.80267962 -260.84609149 71.9224803 -256.65673828 71.89697266 C-255.61693314 71.88689682 -255.61693314 71.88689682 -254.55612183 71.87661743 C-252.26911206 71.85765121 -249.98239598 71.85371396 -247.6953125 71.8515625 C-246.10114421 71.8451335 -244.5069771 71.83840506 -242.91281128 71.83139038 C-239.57221746 71.81942101 -236.23172703 71.81570919 -232.89111328 71.81689453 C-228.61828199 71.81709768 -224.34611612 71.78979882 -220.07344246 71.75535011 C-216.78080218 71.73307141 -213.48832179 71.72905728 -210.19561386 71.73011398 C-208.6207945 71.72775936 -207.04597064 71.71894356 -205.47122574 71.70344925 C-203.26436525 71.68376879 -201.05893618 71.68963379 -198.85205078 71.70166016 C-197.598367 71.69881012 -196.34468323 71.69596008 -195.05300903 71.69302368 C-190.98519361 72.27978946 -188.81982622 73.65283383 -185.625 76.1875 C-183.47158414 79.26380837 -183.12691027 82.50682466 -182.625 86.1875 C-181.84125 85.383125 -181.0575 84.57875 -180.25 83.75 C-176.61006678 80.19673186 -176.61006678 80.19673186 -172.84573364 80.16145325 C-171.06802078 80.22812447 -171.06802078 80.22812447 -169.25439453 80.29614258 C-167.89830547 80.34246863 -166.54219457 80.38815871 -165.18606567 80.43330383 C-164.10485632 80.47111182 -164.10485632 80.47111182 -163.00180435 80.50968361 C-158.366633 80.65912431 -153.72965157 80.73946531 -149.09303474 80.83073902 C-145.02675189 80.91468175 -140.96424822 81.02365502 -136.90039062 81.1887207 C-118.44217488 82.87738657 -118.44217488 82.87738657 -101.85839844 77.15380859 C-98.66525327 73.84721689 -96.64426409 70.29603168 -94.625 66.1875 C-93.00048828 63.73754883 -93.00048828 63.73754883 -91.625 62.1875 C-90.965 62.1875 -90.305 62.1875 -89.625 62.1875 C-89.356875 61.445 -89.08875 60.7025 -88.8125 59.9375 C-87.67223249 57.29688051 -86.53119694 55.33197156 -84.625 53.1875 C-83.965 53.1875 -83.305 53.1875 -82.625 53.1875 C-82.36976563 52.61257812 -82.11453125 52.03765625 -81.8515625 51.4453125 C-80.07662279 48.17806679 -77.59808725 45.70941069 -75.0859375 42.9921875 C-73.41526726 41.31540227 -73.41526726 41.31540227 -73.625 39.1875 C-72.14 38.6925 -72.14 38.6925 -70.625 38.1875 C-69.28229179 36.19378175 -67.94846506 34.1940438 -66.625 32.1875 C-65.965 32.1875 -65.305 32.1875 -64.625 32.1875 C-64.37878906 31.61257812 -64.13257813 31.03765625 -63.87890625 30.4453125 C-62.42706947 27.83110173 -60.72212451 26.12413792 -58.5625 24.0625 C-55.70928067 21.40845 -55.70928067 21.40845 -53.625 18.1875 C-52.26051176 17.34295359 -50.85774145 16.55949467 -49.4375 15.8125 C-46.75059321 14.37218319 -44.30295449 12.95848986 -41.8125 11.1875 C-28.98958533 3.14174962 -14.92907145 -0.01025172 0 0 Z M-27.5625 42.5 C-28.81353516 43.36044922 -28.81353516 43.36044922 -30.08984375 44.23828125 C-35.00244356 48.01545737 -39.07625446 52.69213228 -43.25 57.25 C-43.72695313 57.76626953 -44.20390625 58.28253906 -44.6953125 58.81445312 C-49.51170204 63.36914307 -49.51170204 63.36914307 -51.625 69.1875 C-52.285 69.1875 -52.945 69.1875 -53.625 69.1875 C-55.06302182 70.7785643 -56.42825335 72.4361015 -57.75 74.125 C-58.47445313 75.04152344 -59.19890625 75.95804688 -59.9453125 76.90234375 C-61.72370983 78.84911306 -61.72370983 78.84911306 -61.625 80.1875 C-25.985 80.1875 9.655 80.1875 46.375 80.1875 C45.08168654 65.96105195 42.83130991 57.63071132 33.375 47.1875 C32.715 47.1875 32.055 47.1875 31.375 47.1875 C31.375 46.5275 31.375 45.8675 31.375 45.1875 C29.53099697 43.66122117 29.53099697 43.66122117 27.1875 42.1875 C26.41019531 41.671875 25.63289063 41.15625 24.83203125 40.625 C8.48041667 31.0583956 -12.12483494 31.77213106 -27.5625 42.5 Z M64.375 129.1875 C63.07866379 130.25395115 63.07866379 130.25395115 63.3125 132.75 C63.333125 133.554375 63.35375 134.35875 63.375 135.1875 C64.48336423 133.30433841 64.48336423 133.30433841 65.375 131.1875 C65.045 130.5275 64.715 129.8675 64.375 129.1875 Z M-272.625 165.1875 C-272.625 178.0575 -272.625 190.9275 -272.625 204.1875 C-268.13884788 199.70134788 -268.49039428 193.04600882 -268.4296875 187.0625 C-268.44287881 184.43742851 -268.46657826 181.81239187 -268.5 179.1875 C-268.51005022 177.82682951 -268.51917246 176.46615183 -268.52734375 175.10546875 C-268.5507918 171.79929353 -268.58361144 168.4934912 -268.625 165.1875 C-269.945 165.1875 -271.265 165.1875 -272.625 165.1875 Z M-187.625 165.1875 C-187.625 170.7975 -187.625 176.4075 -187.625 182.1875 C-186.635 182.1875 -185.645 182.1875 -184.625 182.1875 C-183.20725162 180.99897145 -183.20725162 180.99897145 -183.52734375 177.58984375 C-183.5340178 176.10153133 -183.54597817 174.61323568 -183.5625 173.125 C-183.56701172 172.36638672 -183.57152344 171.60777344 -183.57617188 170.82617188 C-183.5879932 168.94658129 -183.60592922 167.06703101 -183.625 165.1875 C-184.945 165.1875 -186.265 165.1875 -187.625 165.1875 Z M419.375 204.1875 C419.375 208.8075 419.375 213.4275 419.375 218.1875 C424.655 218.1875 429.935 218.1875 435.375 218.1875 C432.74357464 215.55607464 430.16687964 213.06244179 427.375 210.625 C426.715 210.04621094 426.055 209.46742188 425.375 208.87109375 C423.43397918 207.23714849 421.40475292 205.70981469 419.375 204.1875 Z M-219.625 284.1875 C-221.35056351 285.91306351 -220.83836795 288.146391 -220.875 290.5 C-220.75125819 302.07673403 -217.67906525 312.41142542 -210 321.1875 C-207.71278982 323.36334487 -207.71278982 323.36334487 -204.625 324.1875 C-204.625 324.8475 -204.625 325.5075 -204.625 326.1875 C-196.09669033 333.56197954 -184.8070638 335.82108119 -173.875 335.4375 C-161.48004409 334.48404185 -150.80522065 329.08849928 -142.5 319.75 C-141.20355196 318.23324053 -139.91256717 316.7118056 -138.625 315.1875 C-137.75427091 314.16765729 -136.88315233 313.14814705 -136.01171875 312.12890625 C-125.81982024 302.18492517 -125.81982024 302.18492517 -119.625 291.1875 C-120.53938339 291.18385437 -121.45376678 291.18020874 -122.39585876 291.17645264 C-131.08801441 291.13830683 -139.77980493 291.08115834 -148.47170162 291.00359726 C-152.93842296 290.96438417 -157.40495487 290.93206935 -161.87182617 290.91650391 C-166.19688779 290.90116235 -170.52142765 290.86641608 -174.84625435 290.81919098 C-176.48168925 290.80455492 -178.11719873 290.79646943 -179.7526989 290.79561615 C-192.2923749 290.78251598 -205.25019415 289.96487664 -216.625 284.1875 C-217.615 284.1875 -218.605 284.1875 -219.625 284.1875 Z " fill="#2FD3B1" transform="translate(485.625,27.8125)"/>
<path d="M0 0 C2.04701376 0.00315485 4.09256814 -0.02038471 6.1394043 -0.0456543 C29.51631053 -0.15833816 53.14764871 6.84886239 70.24682617 23.31567383 C84.87078186 39.73356197 87.39761224 57.15530147 86.24682617 78.31567383 C84.63957795 92.19645393 76.99406258 103.67103991 67.24682617 113.31567383 C66.65643555 113.93958008 66.06604492 114.56348633 65.45776367 115.20629883 C56.97170062 123.50544419 44.59198862 128.47938321 33.24682617 131.31567383 C32.91682617 134.61567383 32.58682617 137.91567383 32.24682617 141.31567383 C49.73682617 141.31567383 67.22682617 141.31567383 85.24682617 141.31567383 C85.24682617 158.14567383 85.24682617 174.97567383 85.24682617 192.31567383 C30.79682617 192.31567383 -23.65317383 192.31567383 -79.75317383 192.31567383 C-79.75317383 175.48567383 -79.75317383 158.65567383 -79.75317383 141.31567383 C-62.59317383 141.31567383 -45.43317383 141.31567383 -27.75317383 141.31567383 C-27.75317383 137.68567383 -27.75317383 134.05567383 -27.75317383 130.31567383 C-28.91204102 130.22415039 -30.0709082 130.13262695 -31.26489258 130.03833008 C-35.86714114 129.45634351 -39.48529989 127.89255054 -43.56567383 125.75317383 C-44.60498047 125.21744751 -44.60498047 125.21744751 -45.6652832 124.67089844 C-62.97248852 115.5300795 -73.41642392 103.34424714 -79.92114258 85.02661133 C-84.56989437 67.78476195 -82.12478945 50.45527832 -73.89770508 34.78051758 C-64.19578432 18.3098149 -47.1694758 8.63679862 -29.34692383 3.17504883 C-19.55569279 0.83366749 -10.05540587 -0.03224035 0 0 Z " fill="#FEFEFE" transform="translate(980.753173828125,115.684326171875)"/>
<path d="M0 0 C21.45 0 42.9 0 65 0 C65 62.37 65 124.74 65 189 C-14.23076923 189 -14.23076923 189 -22.875 181.75 C-31.0714216 172.70500769 -32.29908208 162.08241009 -32.30639648 150.32666016 C-32.31472 149.18087997 -32.32304352 148.03509979 -32.33161926 146.854599 C-32.35563242 143.08271852 -32.36448015 139.31101121 -32.37109375 135.5390625 C-32.38006545 132.90644277 -32.38918739 130.27382355 -32.39845276 127.64120483 C-32.41577801 122.12863523 -32.42267185 116.61610946 -32.42553711 111.10351562 C-32.42917165 104.75268105 -32.45907453 98.40232991 -32.50094169 92.05164301 C-32.53995272 85.91669788 -32.55113225 79.78198632 -32.55226326 73.64692307 C-32.55645947 71.04828644 -32.56886945 68.44964917 -32.58978081 65.85109329 C-32.61674682 62.21101396 -32.61185301 58.57225835 -32.59936523 54.93212891 C-32.61419952 53.86791214 -32.62903381 52.80369537 -32.64431763 51.70722961 C-32.54486437 41.48580418 -28.51255141 34.01639936 -21.75 26.5625 C-20.78046374 25.45511498 -19.81172605 24.34703033 -18.84375 23.23828125 C-18.36550781 22.6963916 -17.88726562 22.15450195 -17.39453125 21.59619141 C-15.29299725 19.1907591 -13.27044526 16.72366158 -11.25 14.25 C-10.59515625 13.45078125 -9.9403125 12.6515625 -9.265625 11.828125 C-6.13427142 7.91933191 -3.07485821 3.95338913 0 0 Z " fill="#FEFEFE" transform="translate(413,119)"/>
<path d="M0 0 C16.34590865 12.30534696 21.56112052 34.34725343 24.43159485 53.57698059 C25.51606523 61.61677952 25.91584809 69.63227487 25.953125 77.73828125 C25.95882507 78.73595016 25.96452515 79.73361908 25.97039795 80.76152039 C25.97977994 82.86321985 25.98635458 84.96493357 25.99023438 87.06665039 C25.99985955 90.20421697 26.03091615 93.34110428 26.0625 96.47851562 C26.20469145 123.57671462 23.98694848 156.83029264 4.75 177.9375 C-5.82277293 187.35620264 -18.17460453 189.8736428 -31.9453125 189.3125 C-43.5509231 188.49842823 -53.62575936 183.34849642 -61.31640625 174.58203125 C-79.2155861 150.26543487 -79.50310177 118.12908363 -79.625 89.25 C-79.63294586 88.26246735 -79.64089172 87.27493469 -79.64907837 86.25747681 C-79.81574683 59.25522478 -77.66325033 27.99202522 -60.25 5.9375 C-44.31239462 -10.02693637 -18.87855917 -11.88121122 0 0 Z " fill="#FEFEFE" transform="translate(636.25,123.0625)"/>
<path d="M0 0 C54.45 0 108.9 0 165 0 C165 15.84 165 31.68 165 48 C130.02 48 95.04 48 59 48 C59 49.98 59 51.96 59 54 C93.98 54 128.96 54 165 54 C165 69.84 165 85.68 165 102 C145.84135736 102.09035784 126.68288774 102.16401544 107.524086 102.20724869 C98.6279588 102.22785782 89.73197357 102.25594681 80.8359375 102.30175781 C73.08048579 102.34167616 65.32513692 102.3674448 57.56958532 102.37635398 C53.46453969 102.3815603 49.35978822 102.39376238 45.25483704 102.42292023 C41.38720735 102.45016852 37.51999165 102.45842615 33.65227509 102.45243073 C32.23656206 102.45352678 30.82083449 102.46142479 29.40520477 102.4768219 C20.61102875 102.56774098 13.72668819 102.42024278 7.01171875 96.140625 C6.57472656 95.51671875 6.13773438 94.8928125 5.6875 94.25 C5.23761719 93.63640625 4.78773438 93.0228125 4.32421875 92.390625 C-10.61475231 65.42115512 0 30.83058809 0 0 Z " fill="#FEFEFE" transform="translate(729,119)"/>
<path d="M0 0 C13.53 0 27.06 0 41 0 C41 22.44 41 44.88 41 68 C42.65 68 44.3 68 46 68 C46 45.56 46 23.12 46 0 C59.53 0 73.06 0 87 0 C87 62.37 87 124.74 87 189 C73.47 189 59.94 189 46 189 C46 165.9 46 142.8 46 119 C44.35 119 42.7 119 41 119 C41 142.1 41 165.2 41 189 C27.47 189 13.94 189 0 189 C0 126.63 0 64.26 0 0 Z " fill="#FEFEFE" transform="translate(115,119)"/>
<path d="M0 0 C24.42 0 48.84 0 74 0 C74 62.37 74 124.74 74 189 C17.26306675 189 17.26306675 189 8.53125 180.82421875 C-0.30910361 170.29247096 -0.2925733 157.30460403 -0.22705078 144.29077148 C-0.22648583 142.71310941 -0.22680486 141.13544681 -0.22793579 139.55778503 C-0.22850704 135.29807657 -0.21678978 131.03848191 -0.20278788 126.77879977 C-0.19024239 122.31852729 -0.18910702 117.85825188 -0.18673706 113.39796448 C-0.18053348 104.96215577 -0.16413791 96.52639922 -0.14403808 88.09061342 C-0.11745261 76.68400463 -0.10669737 65.27738146 -0.09503365 53.87074947 C-0.07625647 35.91379396 -0.03640332 17.95694847 0 0 Z " fill="#FEFEFE" transform="translate(37,119)"/>
<path d="M0 0 C21.45 0 42.9 0 65 0 C65 4.95 65 9.9 65 15 C71.27 15 77.54 15 84 15 C84 33.48 84 51.96 84 71 C76.74 71 69.48 71 62 71 C62.13921875 73.94164062 62.2784375 76.88328125 62.421875 79.9140625 C62.51585244 82.81006394 62.58848364 85.70588636 62.65917969 88.60253906 C62.71899718 90.5932395 62.80049356 92.58342487 62.90527344 94.57226562 C63.84321826 112.85299411 63.84321826 112.85299411 57.87335205 120.26669312 C55.83404409 122.49141687 53.71038805 124.5769789 51.47581482 126.60458374 C49.24570032 128.71320739 47.39057089 131.08872985 45.5 133.5 C42.59418658 137.0836614 39.63060024 140.60421525 36.60839844 144.08935547 C34.05186901 147.04236498 31.52001436 150.01579448 29 153 C28.54415527 153.53882813 28.08831055 154.07765625 27.61865234 154.6328125 C18.70920572 165.29133281 11.43559765 177.18522071 8.66796875 190.9609375 C8 193 8 193 5 195 C2.61857042 195.45764127 0.21836681 195.82094863 -2.1875 196.125 C-3.45980469 196.29257812 -4.73210937 196.46015625 -6.04296875 196.6328125 C-10.07711285 197.00715559 -13.95214827 197.02475428 -18 197 C-18.25375182 189.13530474 -18.42874732 181.27166517 -18.54931641 173.40380859 C-18.59394791 170.72672989 -18.66773694 168.05499313 -18.75439453 165.37841797 C-18.87585586 161.53023716 -18.93243741 157.68568643 -18.9765625 153.8359375 C-19.02817535 152.64197357 -19.07978821 151.44800964 -19.13296509 150.21786499 C-19.13522735 146.86117713 -19.04322646 144.19330398 -18 141 C-15.6249426 138.81736885 -13.41500836 137.5481827 -10.48275757 136.22134399 C-3.64230102 132.85631527 -1.09679802 125.42146597 1.23828125 118.61328125 C2.88997395 112.94670477 3.2009101 107.62995997 3.31640625 101.76171875 C3.33718735 100.88095169 3.35796844 100.00018463 3.37937927 99.09272766 C3.44453937 96.29106121 3.50360321 93.48930443 3.5625 90.6875 C3.60571715 88.78319394 3.64933244 86.87889688 3.69335938 84.97460938 C3.80093233 80.31649732 3.90025481 75.65831253 4 71 C-3.26 71 -10.52 71 -18 71 C-18 52.52 -18 34.04 -18 15 C-13.38 15 -8.76 15 -4 15 C-0.625 19.625 -0.625 19.625 0.6484375 22.3828125 C3.36508008 27.64336316 8.13793229 30.2684734 13.5 32.375 C14.325 32.58125 15.15 32.7875 16 33 C16.33 31.35 16.66 29.7 17 28 C16.29875 27.9175 15.5975 27.835 14.875 27.75 C9.13399505 26.25234654 5.29606133 22.82637551 2 18 C0 13 0 13 0 0 Z " fill="#FDFEFE" transform="translate(225,111)"/>
<path d="M0 0 C54.45 0 108.9 0 165 0 C165 16.17 165 32.34 165 49 C159.06 49 153.12 49 147 49 C147 59.56 147 70.12 147 81 C127.86 81 108.72 81 89 81 C89 70.44 89 59.88 89 49 C84.38 49 79.76 49 75 49 C75 59.56 75 70.12 75 81 C55.86 81 36.72 81 17 81 C17 70.44 17 59.88 17 49 C11.39 49 5.78 49 0 49 C0 32.83 0 16.66 0 0 Z " fill="#FEFEFE" transform="translate(729,227)"/>
<path d="M0 0 C17.49 0 34.98 0 53 0 C53 19.8 53 39.6 53 60 C57.95 60 62.9 60 68 60 C68 78.15 68 96.3 68 115 C63.05 115 58.1 115 53 115 C53 139.42 53 163.84 53 189 C35.51 189 18.02 189 0 189 C0 126.63 0 64.26 0 0 Z " fill="#FDFEFE" transform="translate(485,119)"/>
<path d="M0 0 C18.81 0 37.62 0 57 0 C57 62.7 57 125.4 57 190 C38.19 190 19.38 190 0 190 C0 127.3 0 64.6 0 0 Z " fill="#FCFEFE" transform="translate(667,119)"/>
<path d="M0 0 C18.48 0 36.96 0 56 0 C53.77708966 3.70485056 51.67201358 6.6825 49 10 C34.21769428 31.04462797 28.43687177 52.96704567 32.65234375 78.7578125 C35.53323318 92.68871139 43.01363566 108.4121666 54.08251953 117.54272461 C57.39719348 120.85566437 57.7179779 123.5286161 57.80659485 128.1075592 C57.79436386 129.00147873 57.78213287 129.89539825 57.76953125 130.81640625 C57.78086594 131.75048813 57.79220062 132.68457001 57.80387878 133.6469574 C57.8345101 136.6193752 57.82478414 139.58997871 57.8125 142.5625 C57.82670002 145.53800509 57.84913694 148.51332659 57.87467957 151.48875427 C57.88765007 153.33625854 57.89248855 155.18384265 57.88813782 157.03138733 C57.88871689 157.87253586 57.88929596 158.71368439 57.88989258 159.58032227 C57.88606316 160.68235741 57.88606316 160.68235741 57.88215637 161.80665588 C57.97379902 164.48963715 57.97379902 164.48963715 59 169 C59 175.6 59 182.2 59 189 C39.2 189 19.4 189 -1 189 C-1.03923103 154.70717155 -1.03923103 154.70717155 -1.03125 144.24169922 C-1.03069107 143.5083472 -1.03013214 142.77499519 -1.02955627 142.01942039 C-1.00625322 116.46024069 -0.77852731 90.90223771 -0.55461788 65.34417665 C-0.48573176 57.46710216 -0.42066094 49.5899964 -0.35546875 41.71289062 C-0.2403791 27.80856305 -0.11999386 13.90428801 0 0 Z " fill="#FDFEFE" transform="translate(314,119)"/>
<path d="M0 0 C0.66 0 1.32 0 2 0 C2 18.48 2 36.96 2 56 C-11.84115141 56 -23.44482926 54.81969091 -36 49 C-36 44.26655437 -35.1385251 43.35575161 -32.3125 39.6875 C-31.71888672 38.91515015 -31.71888672 38.91515015 -31.11328125 38.12719727 C-26.67896092 32.44149957 -21.90758127 27.04131192 -17.15625 21.62109375 C-11.85794521 15.56794011 -6.62868008 9.44338759 -2.0625 2.8125 C-1.381875 1.884375 -0.70125 0.95625 0 0 Z " fill="#FCFEFE" transform="translate(306,252)"/>
<path d="M0 0 C1.52119093 0.26881752 3.04191853 0.54025616 4.5625 0.8125 C5.57957031 0.99425781 6.59664062 1.17601562 7.64453125 1.36328125 C9.85736133 1.78317799 12.06384452 2.23825021 14.26171875 2.73046875 C25.7476383 5.26431662 37.28655967 6.14969552 49 7 C49 8.98 49 10.96 49 13 C31.56132769 13.53262913 14.36517049 12.5527207 -2 6 C-1.34 4.02 -0.68 2.04 0 0 Z " fill="#31D3B2" transform="translate(960,175)"/>
<path d="M0 0 C0.55236328 0.20157715 1.10472656 0.4031543 1.67382812 0.61083984 C12.40223153 4.47955366 22.5544295 7.70928521 33.9453125 8.7109375 C37 9 37 9 40 10 C40 11.98 40 13.96 40 16 C27.11105379 16.64804757 8.27324313 15.36944346 -1.859375 6.34375 C-2.23578125 5.9003125 -2.6121875 5.456875 -3 5 C-2.01 3.35 -1.02 1.7 0 0 Z " fill="#35D4B3" transform="translate(591,202)"/>
<path d="M0 0 C1.05316406 0.39832031 2.10632813 0.79664063 3.19140625 1.20703125 C15.59680577 5.80114104 27.76753703 8.83925763 41 10 C41 11.98 41 13.96 41 16 C28.19878872 16.6546074 8.25728909 15.370717 -1.85546875 6.34375 C-2.23316406 5.9003125 -2.61085938 5.456875 -3 5 C-2.01 3.35 -1.02 1.7 0 0 Z " fill="#33D3B2" transform="translate(410,200)"/>
<path d="M0 0 C3.92760121 0.56716263 7.60100337 1.80358149 11.375 3 C18.94126732 5.21217138 26.13008904 5.77955431 34 6 C34 8.31 34 10.62 34 13 C20.92346141 13.49449096 8.58675462 12.72031768 -3 6 C-1.125 1.125 -1.125 1.125 0 0 Z " fill="#38D4B4" transform="translate(57,203)"/>
<path d="" fill="#2FD3B1" transform="translate(0,0)"/>
<path d="" fill="#2FD3B1" transform="translate(0,0)"/>
<path d="" fill="#2FD3B1" transform="translate(0,0)"/>
<path d="" fill="#2FD3B1" transform="translate(0,0)"/>
<path d="" fill="#2FD3B1" transform="translate(0,0)"/>
<path d="" fill="#2FD3B1" transform="translate(0,0)"/>
<path d="" fill="#2FD3B1" transform="translate(0,0)"/>
<path d="" fill="#2FD3B1" transform="translate(0,0)"/>
<path d="" fill="#2FD3B1" transform="translate(0,0)"/>
<path d="" fill="#2FD3B1" transform="translate(0,0)"/>
<path d="" fill="#2FD3B1" transform="translate(0,0)"/>
<path d="" fill="#2FD3B1" transform="translate(0,0)"/>
<path d="" fill="#2FD3B1" transform="translate(0,0)"/>
<path d="" fill="#2FD3B1" transform="translate(0,0)"/>
<path d="" fill="#2FD3B1" transform="translate(0,0)"/>
<path d="" fill="#2FD3B1" transform="translate(0,0)"/>
<path d="" fill="#2FD3B1" transform="translate(0,0)"/>
</svg>
