<svg width="22" height="22" viewBox="0 0 22 22" fill="none" xmlns="http://www.w3.org/2000/svg">
<path d="M9.91235 12.0865C9.72125 11.8957 9.49351 11.7456 9.24286 11.6453L1.31377 8.46564C1.2191 8.42765 1.13831 8.36161 1.08225 8.27639C1.0262 8.19116 0.997552 8.09083 1.00016 7.98885C1.00278 7.88688 1.03652 7.78814 1.09687 7.7059C1.15721 7.62365 1.24127 7.56184 1.33777 7.52875L20.3356 1.02949C20.4242 0.997494 20.5201 0.991387 20.612 1.01189C20.7039 1.03239 20.7881 1.07865 20.8547 1.14526C20.9213 1.21187 20.9676 1.29607 20.9881 1.38801C21.0086 1.47995 21.0025 1.57582 20.9705 1.66442L14.4713 20.6622C14.4382 20.7587 14.3763 20.8428 14.2941 20.9031C14.2119 20.9635 14.1131 20.9972 14.0111 20.9998C13.9092 21.0024 13.8088 20.9738 13.7236 20.9177C13.6384 20.8617 13.5723 20.7809 13.5344 20.6862L10.3547 12.7551C10.2539 12.5047 10.1034 12.2772 9.91235 12.0865ZM9.91235 12.0865L20.8515 1.14948" stroke="white" stroke-width="2" stroke-linecap="round" stroke-linejoin="round"/>
</svg>
