<svg width="104" height="104" viewBox="0 0 104 104" fill="none" xmlns="http://www.w3.org/2000/svg">
<g clip-path="url(#clip0_821_3555)">
<path d="M103 7C103.33 7 103.66 7 104 7C104 39.01 104 71.02 104 104C71.99 104 39.98 104 7 104C13.8281 96.0339 13.8281 96.0339 16.4375 93.4375C16.9518 92.9206 17.4662 92.4037 17.9961 91.8711C18.988 90.9449 18.988 90.9449 20 90C20.4173 89.5134 20.8346 89.0267 21.2646 88.5254C24.9263 84.7041 27.733 83.5708 33.0271 83.3188C35.4024 83.3198 37.7778 83.3533 40.1523 83.4141C42.0352 83.4268 42.0352 83.4268 43.9562 83.4398C47.2731 83.4676 50.5875 83.5214 53.9037 83.588C57.2956 83.6497 60.6878 83.6769 64.0801 83.707C70.7207 83.7731 77.3602 83.8734 84 84C83.9667 83.3214 83.9334 82.6429 83.8991 81.9437C83.5642 74.8057 83.3398 67.6699 83.176 60.5259C83.1096 57.866 82.9994 55.2187 82.8684 52.5601C81.6961 28.129 81.6961 28.129 89.2377 19.4589C91.7995 16.9197 94.4387 14.5729 97.2827 12.3547C99.3512 10.7229 101.15 8.87125 103 7Z" fill="#45556C"/>
<path d="M0 0C30.36 0 60.72 0 92 0C90.02 2.31 88.04 4.62 86 7C85.322 7.86508 84.6439 8.73015 83.9453 9.62144C80.8885 13.2001 78.5023 15.6292 73.851 16.7771C70.1264 17.0395 66.5087 17.0135 62.7773 16.8789C61.4226 16.8621 60.0678 16.8493 58.713 16.8403C55.1753 16.8062 51.6411 16.7181 48.1047 16.618C44.485 16.5253 40.8647 16.4847 37.2441 16.4395C30.1614 16.3434 23.0809 16.1902 16 16C16.05 17.0964 16.05 17.0964 16.1009 18.2149C16.404 25.1696 16.6311 32.1234 16.7772 39.0831C16.8549 42.6604 16.9597 46.2322 17.1316 49.8064C18.3016 74.7712 18.3016 74.7712 12.6294 82.312C9.12443 86.1389 5.34423 89.1747 1 92C0.67 92 0.34 92 0 92C0 61.64 0 31.28 0 0Z" fill="#45556C"/>
<path d="M36 36C45.24 36 54.48 36 64 36C64 45.24 64 54.48 64 64C54.76 64 45.52 64 36 64C36 54.76 36 45.52 36 36Z" fill="#45556C"/>
</g>
<defs>
<clipPath id="clip0_821_3555">
<rect width="104" height="104" fill="white"/>
</clipPath>
</defs>
</svg>
