<svg width="97" height="104" viewBox="0 0 97 104" fill="none" xmlns="http://www.w3.org/2000/svg">
<g clip-path="url(#clip0_362_4089)">
<path d="M18.6538 0C22.6793 3.49711 25.2137 7.87504 27.9808 12.3616C28.7726 13.6439 28.7726 13.6439 29.5804 14.9521C44.2229 38.9866 59.2107 65.8973 52.8137 94.9464C51.9932 98.1974 51.051 101.058 49.4327 104C46.6567 102.76 44.7324 101.407 42.6124 99.2411C42.1158 98.7407 41.6193 98.2404 41.1077 97.7249C39.9692 96.4996 38.8483 95.2569 37.7715 93.9775C35.0016 90.7078 32.2686 87.7931 28.8734 85.1602C19.8941 78.0869 16.3079 72.6614 14.8798 61.29C14.684 59.5848 14.4932 57.8791 14.3083 56.1727C13.0799 47.2249 8.63499 40.1348 2.79808 33.4286C1.85612 32.1974 0.920597 30.9613 0 29.7143C12.6538 33.0295 23.8226 43.0754 30.7788 53.8571C31.4394 55.3888 32.0721 56.9335 32.6442 58.5C33.6427 39.5296 27.522 22.8002 19.8234 5.63672C18.6538 2.78571 18.6538 2.78571 18.6538 0Z" fill="#2FD3B1"/>
<path d="M95.1347 29.7144C95.7503 30.0208 96.3659 30.3272 97.0001 30.6429C96.5156 31.1385 96.0311 31.634 95.5319 32.1446C86.0195 42.2627 81.4455 54.3619 80.9112 68.192C79.8075 77.0932 71.012 83.7475 64.3559 89.1429C64.0481 89.1429 63.7403 89.1429 63.4232 89.1429C62.1147 72.4971 68.4374 55.9569 78.5794 42.8304C83.1946 37.4844 88.7736 32.8809 95.1347 29.7144Z" fill="#2FD3B1"/>
<path d="M77.4133 0C78.5774 3.47687 77.952 4.3073 76.5279 7.61356C75.9202 9.05735 75.9202 9.05735 75.3001 10.5303C74.8625 11.556 74.4249 12.5816 73.974 13.6384C68.7437 26.2867 65.4981 38.0603 63.8929 51.6518C63.2804 55.7355 62.1151 59.2987 60.6248 63.1429C60.0092 63.1429 59.3936 63.1429 58.7594 63.1429C57.6278 60.1916 56.5296 57.2291 55.4367 54.2634C55.1175 53.4321 54.7983 52.6008 54.4694 51.7443C52.1921 45.4923 51.7744 41.4138 54.3947 35.108C61.0206 22.7858 68.9358 11.1371 77.4133 0Z" fill="#2FD3B1"/>
</g>
<defs>
<clipPath id="clip0_362_4089">
<rect width="97" height="104" fill="white"/>
</clipPath>
</defs>
</svg>
