<svg width="104" height="103" viewBox="0 0 104 103" fill="none" xmlns="http://www.w3.org/2000/svg">
<g clip-path="url(#clip0_821_3542)">
<path d="M102.074 0.962472C103.464 9.77542 104.452 18.4365 99.1103 26.0858C94.8796 31.2941 90.106 35.9566 85.3012 40.6291C83.5547 42.3885 81.8112 44.151 80.0706 45.9163C76.4245 49.5908 72.7459 53.2273 69.0368 56.8382C64.7767 60.9868 60.5943 65.2033 56.445 69.4624C52.4165 73.593 48.3327 77.6634 44.2226 81.7131C42.496 83.4257 40.7841 85.1531 39.0881 86.8959C24.4854 101.811 24.4854 101.811 13.5949 102.205C9.63683 102.087 5.83837 101.691 1.92587 101.075C0.535685 92.2617 -0.452518 83.6006 4.8896 75.9513C9.12028 70.743 13.8938 66.0805 18.6987 61.408C20.4452 59.6485 22.1887 57.8861 23.9293 56.1208C27.5754 52.4463 31.254 48.8097 34.9631 45.1989C39.2232 41.0503 43.4055 36.8338 47.5549 32.5747C51.5833 28.4441 55.6672 24.3736 59.7773 20.324C61.5038 18.6114 63.2157 16.884 64.9117 15.1412C76.7976 3.001 84.9167 -1.74203 102.074 0.962472Z" fill="#45556C"/>
<path d="M102.074 34.6543C102.074 56.5731 102.074 78.4919 102.074 101.075C80.4654 101.075 58.8565 101.075 36.5928 101.075C38.4994 98.8512 40.4061 96.6276 42.3706 94.3365C42.9694 93.5003 43.5683 92.664 44.1853 91.8024C47.304 87.8691 50.0302 85.568 55.0701 84.9844C59.8543 84.715 64.6114 84.9154 69.3937 85.1315C71.0706 85.175 72.7477 85.2146 74.4248 85.25C78.5082 85.3448 82.5863 85.4939 86.6668 85.673C86.6377 85.0387 86.6085 84.4044 86.5785 83.7508C86.5381 82.8626 86.4978 81.9743 86.4562 81.0592C86.4114 80.0808 86.3667 79.1023 86.3205 78.0943C86.23 75.9564 86.1506 73.818 86.0822 71.6793C85.9406 67.3167 85.7898 63.1061 85.0983 58.7912C84.4825 54.4271 84.4795 51.69 87.2048 48.0534C98.9488 34.6543 98.9488 34.6543 102.074 34.6543Z" fill="#45556C"/>
<path d="M1.92578 0.962402C23.5347 0.962402 45.1436 0.962402 67.4073 0.962402C65.5006 3.18605 63.5939 5.40969 61.6295 7.70072C61.0306 8.53699 60.4318 9.37326 59.8148 10.2349C56.6961 14.1681 53.9699 16.4693 48.9299 17.0529C44.1458 17.3222 39.3887 17.1219 34.6063 16.9057C32.9294 16.8622 31.2524 16.8227 29.5752 16.7873C25.4918 16.6924 21.4137 16.5433 17.3332 16.3643C17.4088 17.3676 17.4845 18.3709 17.5624 19.4046C19.6668 49.889 19.6668 49.889 14.1509 57.5613C10.7963 61.1784 7.13716 63.9311 2.88874 66.4203C2.57097 66.4203 2.25319 66.4203 1.92578 66.4203C1.92578 44.8192 1.92578 23.2181 1.92578 0.962402Z" fill="#45556C"/>
</g>
<defs>
<clipPath id="clip0_821_3542">
<rect width="104" height="103" fill="white"/>
</clipPath>
</defs>
</svg>
