<svg width="124" height="104" viewBox="0 0 124 104" fill="none" xmlns="http://www.w3.org/2000/svg">
<g clip-path="url(#clip0_821_3546)">
<path d="M57.4414 37.4033C58.2688 37.742 59.0962 38.0807 59.9487 38.4296C62.7937 39.5244 62.7937 39.5244 64.9207 38.3655C65.4613 38.048 66.002 37.7305 66.559 37.4033C67.9948 44.4474 69.4223 51.493 70.844 58.5399C71.328 60.9366 71.8146 63.3328 72.3034 65.7286C73.0054 69.1742 73.7006 72.6211 74.3945 76.0683C74.7236 77.6723 74.7236 77.6723 75.0593 79.3086C75.2601 80.3127 75.4609 81.3168 75.6678 82.3514C75.8459 83.2306 76.0241 84.1098 76.2077 85.0157C77.2602 92.101 77.2602 92.101 75.489 94.6095C74.7304 95.2058 74.7304 95.2058 73.9564 95.8142C73.4011 96.2535 72.8457 96.6927 72.2736 97.1452C71.6853 97.5821 71.0971 98.019 70.491 98.4691C69.9204 98.9307 69.3498 99.3923 68.7619 99.8678C64.6056 103.06 64.6056 103.06 61.5194 103.169C58.4381 101.811 55.7189 100.143 52.9965 98.184C52.4441 97.8371 51.8917 97.4902 51.3226 97.1328C49.5832 95.871 48.5621 94.8741 47.412 93.0524C47.0714 86.0957 49.0116 78.839 50.4072 72.0593C50.6083 71.061 50.8094 70.0628 51.0166 69.0343C51.6526 65.8829 52.2959 62.733 52.9395 59.5831C53.3751 57.4314 53.8102 55.2796 54.2448 53.1277C55.3048 47.8851 56.3707 42.6437 57.4414 37.4033Z" fill="#45556C"/>
<path d="M104.112 22.1796C106.043 22.23 107.974 22.2758 109.905 22.3168C114.606 22.4266 119.302 22.5994 124 22.8068C113.737 33.1967 103.949 37.8577 89.3528 38.3155C90.011 39.1399 90.6692 39.9643 91.3473 40.8136C92.2024 41.9003 93.0572 42.9872 93.9116 44.0743C94.3465 44.617 94.7814 45.1598 95.2294 45.7189C98.4705 49.8652 98.4705 49.8652 98.4705 52.912C95.9662 53.9843 93.4587 55.0472 90.9484 56.105C90.2397 56.4096 89.531 56.7142 88.8008 57.028C87.7694 57.4602 87.7694 57.4602 86.7172 57.9011C86.087 58.1686 85.4567 58.4361 84.8073 58.7118C82.9705 59.298 82.9705 59.298 79.3234 59.298C78.2496 55.7469 77.1897 52.1918 76.1322 48.6357C75.8278 47.6297 75.5234 46.6236 75.2098 45.5871C74.9218 44.6139 74.6339 43.6408 74.3372 42.6382C74.0698 41.7448 73.8024 40.8514 73.5269 39.931C72.6006 35.9345 72.3583 33.8937 74.3917 30.2233C82.7086 20.415 92.0205 21.6297 104.112 22.1796Z" fill="#45556C"/>
<path d="M0 22.8071C5.65925 22.5572 11.3152 22.3761 16.9787 22.2558C18.9008 22.2057 20.8224 22.1374 22.7431 22.05C40.357 21.2696 40.357 21.2696 46.1088 26.0712C48.6488 28.6554 50.6593 31.226 51.5374 34.7783C51.3833 36.7621 50.86 38.2833 50.1471 40.1404C49.7128 41.7734 49.2847 43.4081 48.8613 45.0439C48.3647 46.7561 47.8624 48.4666 47.3548 50.1755C47.098 51.0563 46.8412 51.9371 46.5766 52.8446C45.9482 54.9974 45.3147 57.1485 44.6765 59.2983C40.0951 58.7342 36.2452 57.3554 32.0257 55.5922C31.0843 55.2067 31.0843 55.2067 30.1239 54.8135C28.5903 54.1848 27.0596 53.5493 25.5294 52.9123C26.0386 49.0957 28.3052 46.5024 30.6011 43.5615C30.9884 43.0558 31.3756 42.5501 31.7746 42.0291C32.7269 40.7873 33.6863 39.551 34.6471 38.3159C33.8972 38.2923 33.1473 38.2688 32.3748 38.2446C19.9501 37.613 11.4198 33.122 1.82353 25.5439C1.22176 24.6408 0.62 23.7376 0 22.8071Z" fill="#45556C"/>
<path d="M46.5 0.912247C50.7181 0.776752 54.9349 0.677526 59.1547 0.611568C60.5894 0.584071 62.0239 0.546739 63.458 0.499315C65.5225 0.432766 67.5849 0.401846 69.6503 0.377707C70.2896 0.349456 70.9289 0.321205 71.5876 0.292098C73.4122 0.290845 73.4122 0.290845 76.5882 0.912247C78.7927 3.49281 80.1636 5.15654 80.3635 8.58467C78.7729 12.1981 76.2657 14.8329 73.625 17.7324C72.5751 18.9092 71.5256 20.0864 70.4765 21.2639C69.9706 21.8271 69.4646 22.3902 68.9433 22.9705C66.8753 25.303 64.8909 27.6969 62.9117 30.1052C60.2404 28.9179 58.5479 27.7406 56.6754 25.5011C56.2141 24.9554 55.7528 24.4097 55.2775 23.8476C54.8068 23.2784 54.3361 22.7092 53.8511 22.1228C53.3839 21.5677 52.9167 21.0126 52.4354 20.4408C51.5078 19.3369 50.5849 18.2291 49.6669 17.1173C48.7808 16.0563 47.8788 15.0083 46.9605 13.9751C43.7587 10.3358 43.7587 10.3358 43.8217 7.18418C44.5546 4.93528 45.419 3.00355 46.5 0.912247Z" fill="#45556C"/>
</g>
<defs>
<clipPath id="clip0_821_3546">
<rect width="124" height="104" fill="white"/>
</clipPath>
</defs>
</svg>
