<svg width="104" height="104" viewBox="0 0 104 104" fill="none" xmlns="http://www.w3.org/2000/svg">
<g clip-path="url(#clip0_821_3551)">
<path d="M0 0C32.01 0 64.02 0 97 0C90.1719 7.9661 90.1719 7.9661 87.5625 10.5625C87.0482 11.0794 86.5338 11.5963 86.0039 12.1289C85.012 13.0551 85.012 13.0551 84 14C83.5827 14.4866 83.1654 14.9733 82.7354 15.4746C79.0737 19.2959 76.267 20.4292 70.9729 20.6812C68.5976 20.6802 66.2222 20.6467 63.8477 20.5859C61.9648 20.5732 61.9648 20.5732 60.0438 20.5602C56.7269 20.5324 53.4125 20.4786 50.0963 20.412C46.7044 20.3503 43.3122 20.3231 39.9199 20.293C33.2793 20.2269 26.6398 20.1266 20 20C20.05 21.0179 20.05 21.0179 20.1009 22.0563C20.4358 29.1943 20.6602 36.3301 20.824 43.4741C20.8904 46.134 21.0006 48.7813 21.1316 51.4399C22.3038 75.8672 22.3038 75.8672 14.8112 84.5411C11.7184 87.6269 8.48541 90.3725 5 93C3.35 94.32 1.7 95.64 0 97C0 64.99 0 32.98 0 0Z" fill="#45556C"/>
<path d="M104 12C104 42.36 104 72.72 104 104C73.64 104 43.28 104 12 104C13.98 101.69 15.96 99.38 18 97C18.678 96.1349 19.3561 95.2698 20.0547 94.3786C23.1115 90.7999 25.4977 88.3708 30.149 87.2229C33.8736 86.9605 37.4913 86.9865 41.2227 87.1211C42.5774 87.1379 43.9322 87.1507 45.287 87.1597C48.8247 87.1938 52.3589 87.2819 55.8953 87.382C59.515 87.4747 63.1353 87.5153 66.7559 87.5605C73.8386 87.6566 80.9191 87.8098 88 88C87.9667 87.2691 87.9334 86.5382 87.8991 85.7851C87.596 78.8304 87.3689 71.8766 87.2228 64.9169C87.1451 61.3396 87.0403 57.7678 86.8684 54.1936C85.6984 29.2288 85.6984 29.2288 91.3706 21.688C100.244 12 100.244 12 104 12Z" fill="#45556C"/>
<path d="M40 40C49.24 40 58.48 40 68 40C68 49.24 68 58.48 68 68C58.76 68 49.52 68 40 68C40 58.76 40 49.52 40 40Z" fill="#45556C"/>
</g>
<defs>
<clipPath id="clip0_821_3551">
<rect width="104" height="104" fill="white"/>
</clipPath>
</defs>
</svg>
